
<svg width="29px" height="34px" viewBox="0 0 29 34" version="1.1" xmlns="http://www.w3.org/2000/svg" xmlns:xlink="http://www.w3.org/1999/xlink">
    <!-- Generator: Sketch 46.2 (44496) - http://www.bohemiancoding.com/sketch -->
    <desc>Created with Sketch.</desc>
    <defs></defs>
    <g id="Symbols" stroke="none" stroke-width="1" fill="none" fill-rule="evenodd">
        <g id="chapter-title" fill-rule="nonzero" fill="#000000">
            <path d="M25.2991771,4.90055866 L24.1666667,4.90055866 L3.66276042,4.90055866 C2.97457682,4.90055866 2.41666667,4.3394257 2.41666667,3.64692737 C2.41666667,2.95454302 2.9746901,2.39329609 3.66276042,2.39329609 L21.3346354,2.39329609 L24.1666667,2.39329609 L25.3935781,2.39329609 C26.0507604,2.39329609 26.5833333,1.85753966 26.5833333,1.19664804 C26.5833333,0.535604469 26.0506849,0 25.3935781,0 L24.1666667,0 L21.3346354,0 L4.79530859,0 C2.14694401,0 0,2.16004469 0,4.82458101 C0,4.92688492 0.00354947917,5.02835307 0.00977994792,5.12909944 C0.003625,5.15329832 0,30.277095 0,30.277095 C0,32.3329363 1.65692708,34 3.70082292,34 L25.2991771,34 C27.3430729,34 29,32.3332022 29,30.277095 L29,8.62346369 C29,6.56758436 27.3430729,4.90055866 25.2991771,4.90055866 Z M25.2991771,4.90055866 L24.1666667,4.90055866 L3.66276042,4.90055866 C2.97457682,4.90055866 2.41666667,4.3394257 2.41666667,3.64692737 C2.41666667,2.95454302 2.9746901,2.39329609 3.66276042,2.39329609 L21.3346354,2.39329609 L24.1666667,2.39329609 L25.3935781,2.39329609 C26.0507604,2.39329609 26.5833333,1.85753966 26.5833333,1.19664804 C26.5833333,0.535604469 26.0506849,0 25.3935781,0 L24.1666667,0 L21.3346354,0 L4.79530859,0 C2.14694401,0 0,2.16004469 0,4.82458101 C0,4.92688492 0.00354947917,5.02835307 0.00977994792,5.12909944 C0.003625,5.15329832 0,30.277095 0,30.277095 C0,32.3329363 1.65692708,34 3.70082292,34 L25.2991771,34 C27.3430729,34 29,32.3332022 29,30.277095 L29,8.62346369 C29,6.56758436 27.3430729,4.90055866 25.2991771,4.90055866 Z M7.25,27.9216358 C7.25,28.5931263 6.70915755,29.1374302 6.04166667,29.1374302 C5.37432682,29.1374302 4.83333333,28.5930883 4.83333333,27.9216358 L4.83333333,10.9029453 C4.83333333,10.2314927 5.37417578,9.68715084 6.04166667,9.68715084 C6.70900651,9.68715084 7.25,10.2314927 7.25,10.9029453 L7.25,27.9216358 Z" id="Shape"></path>
        </g>
    </g>
</svg>
