<?xml version="1.0" encoding="UTF-8"?>
<svg width="183px" height="256px" viewBox="0 0 183 256" version="1.1" xmlns="http://www.w3.org/2000/svg" xmlns:xlink="http://www.w3.org/1999/xlink">
    <!-- Generator: Sketch 46.2 (44496) - http://www.bohemiancoding.com/sketch -->
    <title>Path 2</title>
    <desc>Created with Sketch.</desc>
    <defs></defs>
    <g id="好奇猫" stroke="none" stroke-width="1" fill="none" fill-rule="evenodd" opacity="0.6">
        <g id="首页" transform="translate(-860.000000, -139.000000)" fill="#FFFFFF">
            <path d="M962.090909,156 C969.757576,156 977.424242,156 985.090909,156 C1009.09091,146.333333 1023.42424,140.833333 1028.09091,139.5 C1029.09091,139.5 1035.09091,140.5 1035.59091,147.692308 C1034.09091,160.884615 1030.09091,167.5 1026.59091,185.5 C1032.09091,199.5 1034.59091,200.5 1034.09091,214.5 C1032.59091,238 1026.59091,238.5 1012.09091,257 C1020.59091,287.5 1030.75209,287.146799 1040.09091,321 C1043.59091,339 1043.09091,343 1040.09091,358.5 C1036.59091,379.5 1026.59091,385 1009.59091,392.5 C959.090909,397 959.090909,394 907.590909,391 C885.090909,389.5 879.090909,380 869.090909,358.5 C862.424242,345.166667 859.424242,328.5 860.090909,308.5 C863.77595,288.48001 869.77595,272.98001 878.090909,262 C882.77595,255.813343 889.77595,254.146677 899.090909,257 C903.516587,261.43789 905.34992,265.771223 904.590909,270 C899.090909,283 894.504849,281.516362 892.090909,296 C889.004849,314.516362 888.510754,337.8345 893.590909,336 C898.671064,334.1655 890.590909,326.5 910.090909,289.5 C916.816019,272.633852 920.090909,271 925.090909,257 C906.090909,241.5 912.590909,243.5 903.090909,226 C901.757576,216 903.257576,204.166667 907.590909,190.5 C908.278616,186.48347 908.278616,182.650137 907.590909,179 C905.372469,167.225205 904.090909,167.5 901.090909,156 C900.475391,147.895685 901.106305,144.499649 904.590909,139.5 C907.924242,138.833333 910.590909,138.833333 912.590909,139.5 C925.257576,143.5 936.924242,149 947.590909,156 C956.590909,157 950.590909,156 962.090909,156 Z" id="Path-2"></path>
        </g>
    </g>
</svg>