<?xml version="1.0" standalone="no"?><!DOCTYPE svg PUBLIC "-//W3C//DTD SVG 1.1//EN" "http://www.w3.org/Graphics/SVG/1.1/DTD/svg11.dtd"><svg class="icon" width="16px" height="16.00px" viewBox="0 0 1024 1024" version="1.1" xmlns="http://www.w3.org/2000/svg"><path d="M487.663811 513.633524C629.317144 513.633524 744.541525 398.409143 744.541525 256.828952 744.541525 115.224381 629.317144 0 487.663811 0 346.083621 0 230.883621 115.224381 230.883621 256.828952 230.883621 398.409143 346.083621 513.633524 487.663811 513.633524L487.663811 513.633524ZM487.663811 36.571429C609.154097 36.571429 707.970097 135.387429 707.970097 256.828952 707.970097 378.246095 609.154097 477.062095 487.663811 477.062095 366.246668 477.062095 267.455049 378.246095 267.455049 256.828952 267.455049 135.387429 366.246668 36.571429 487.663811 36.571429L487.663811 36.571429ZM869.32324 982.77181C853.183049 912.432762 795.985335 703.561143 753.416192 648.143238 686.709906 537.014857 546.568192 551.009524 542.594097 551.521524L428.320573 551.521524C423.590668 551.619048 310.536192 548.473905 244.268763 643.681524 207.453525 696.612571 153.498478 898.755048 134.554478 982.844952 132.31143 992.694857 138.504192 1002.471619 148.354097 1004.690286 158.228382 1006.982095 168.005144 1000.740571 170.19943 990.890667 190.143049 902.558476 242.805906 709.851429 274.306097 664.551619 328.895049 586.093714 426.19943 588.141714 427.686668 588.092952L544.544573 587.995429C545.812382 587.776 668.253525 576.097524 722.549906 667.794286 722.988763 668.501333 723.452002 669.208381 723.964002 669.842286 757.292763 711.92381 813.100763 901.241905 833.678287 990.96381 835.604382 999.424 843.162478 1005.153524 851.476382 1005.153524 852.841716 1005.153524 854.207049 1005.007238 855.572382 1004.690286 865.422287 1002.447238 871.590668 992.621714 869.32324 982.77181L869.32324 982.77181Z" fill="#2c2c2c" /></svg>
