
<svg width="19px" height="19px" viewBox="0 0 19 19" version="1.1" xmlns="http://www.w3.org/2000/svg" xmlns:xlink="http://www.w3.org/1999/xlink">
    <!-- Generator: Sketch 46.2 (44496) - http://www.bohemiancoding.com/sketch -->
    <desc>Created with Sketch.</desc>
    <defs></defs>
    <g id="playButton" stroke="none" stroke-width="1" fill="none" fill-rule="evenodd">
        <g id="ep" transform="translate(0.000000, -6.000000)" fill-rule="nonzero" fill="#000000">
            <g transform="translate(0.000000, 3.000000)" id="play-button">
                <g transform="translate(0.000000, 3.000000)">
                    <path d="M9.5,0 C4.2617,0 0,4.2617 0,9.5 C0,14.7383 4.2617,19 9.5,19 C14.7383,19 19,14.7383 19,9.5 C19,4.2617 14.7383,0 9.5,0 Z M14.4282833,9.76156667 L7.46161667,14.5115667 C7.4081,14.5479833 7.34571667,14.5666667 7.28333333,14.5666667 C7.23266667,14.5666667 7.18168333,14.5546333 7.13545,14.5299333 C7.03158333,14.47515 6.96666667,14.3674833 6.96666667,14.25 L6.96666667,4.75 C6.96666667,4.63251667 7.03158333,4.52485 7.13545,4.47006667 C7.23931667,4.41496667 7.36471667,4.42256667 7.46193333,4.48843333 L14.4286,9.23843333 C14.5147333,9.29733333 14.5666667,9.39518333 14.5666667,9.5 C14.5666667,9.60481667 14.5147333,9.70266667 14.4282833,9.76156667 Z" id="Shape"></path>
                </g>
            </g>
        </g>
    </g>
</svg>
