<?xml version="1.0" encoding="UTF-8" standalone="no"?>
<svg width="46px" height="46px" viewBox="0 0 46 46" version="1.1" xmlns="http://www.w3.org/2000/svg" xmlns:xlink="http://www.w3.org/1999/xlink">
    <!-- Generator: sketchtool 3.7.1 (28215) - http://www.bohemiancoding.com/sketch -->
    <title>icon_wechat</title>
    <desc>Created with sketchtool.</desc>
    <defs></defs>
    <g id="状态" stroke="none" stroke-width="1" fill="none" fill-rule="evenodd">
        <g id="注册" transform="translate(-648.000000, -600.000000)">
            <g id="Group-2" transform="translate(648.000000, 600.000000)">
                <rect id="Rectangle-313" fill-opacity="0" fill="#D8D8D8" x="0" y="0" width="46" height="46"></rect>
                <path d="M21.8878168,20.5677097 C26.4860109,16.2512853 34.0426434,15.9836763 39.1257706,19.5857058 C41.3651903,21.1786444 43.1295027,23.5325059 43.6051879,26.2802672 C43.8369617,27.592592 43.7606671,28.9369952 43.3514506,30.2074157 C42.8786554,31.6604809 42.030745,32.958934 41.0146398,34.0900591 C40.3863654,34.7897152 39.6884432,35.4263704 38.9509289,36.0089837 C38.8315741,36.1037739 38.5399784,36.2306426 38.5876626,36.3893006 C38.6211859,36.5005636 38.6547093,36.6118265 38.6882327,36.7230895 C38.7532565,36.9392575 38.8182803,37.1551365 38.8833041,37.3710155 C39.1468672,38.2475363 39.4118753,39.1234792 39.6742825,40 C38.5983554,39.4098729 37.5215612,38.8209018 36.4453451,38.2313526 C36.1751351,38.0830984 35.9049251,37.9348441 35.6344261,37.7871678 C35.5691133,37.7516215 35.367395,37.8438108 35.2980363,37.8611505 C35.1162586,37.9065226 34.934481,37.9513168 34.7524143,37.995244 C34.3261472,38.0981261 33.8987241,38.1952283 33.468122,38.2775918 C31.7486038,38.6073347 30.0076999,38.5813252 28.2902046,38.2406005 C25.5571821,37.6998915 23.0082491,36.3491304 21.1419216,34.2686578 C19.1643311,32.0642065 18.2409931,29.0219596 18.7788122,26.1016685 C19.1721339,23.9700439 20.3171308,22.0444724 21.8878168,20.5677097 M22.310038,15.9715385 C23.3822082,15.9715385 24.1593149,15.1944318 24.1593149,14.1219726 C24.1593149,13.0483575 23.3816302,12.2793426 22.310038,12.2793426 C21.2696572,12.2793426 20.0914259,12.9737968 20.0914259,14.1219726 C20.0914259,15.2689925 21.2690792,15.9715385 22.310038,15.9715385 M11.9700978,12.2793426 C10.930295,12.2793426 9.74512791,12.9726409 9.74512791,14.1219726 C9.74512791,15.2701484 10.929717,15.9715385 11.9700978,15.9715385 C13.0408231,15.9715385 13.8141728,15.1912529 13.8141728,14.1219726 C13.8141728,13.0515364 13.0402451,12.2793426 11.9700978,12.2793426 M35.2411043,22.9955539 C34.4114006,22.9955539 33.631115,23.8891254 33.798154,24.7121822 C33.9923584,25.6678875 34.9743622,26.1152513 35.8586859,25.8690278 C36.5453373,25.6777134 37.2054011,25.0540629 37.0744865,24.2841811 C36.9311451,23.4408946 36.0242799,22.9955539 35.2411043,22.9955539 M27.1145743,22.9955539 C26.2842926,22.9955539 25.4921583,23.8842125 25.6615091,24.7121822 C25.8577365,25.6716445 26.8501442,26.1149623 27.7362018,25.8690278 C28.4245871,25.6777134 29.0771371,25.0540629 28.9479565,24.2841811 C28.8057711,23.4374267 27.9000618,22.9955539 27.1145743,22.9955539 M14.7675662,6.11132949 C20.5916757,5.4443298 27.1408728,7.78114067 30.2923597,12.9411404 C30.9414417,14.0026178 31.4018102,15.1591745 31.6766441,16.3723741 C28.3835499,16.0044839 24.9904635,16.8859176 22.3348915,18.8776689 C20.3940034,20.333335 18.9001899,22.3860641 18.1852171,24.7095812 C17.5450939,26.781384 17.543938,28.9947941 18.1490928,31.0738218 C16.3680187,31.2136952 14.6522573,31.0111099 12.9075965,30.6573804 C12.503004,30.575306 12.0987005,30.4909195 11.6935299,30.41029 C11.527069,30.3770556 11.3513603,30.5125941 11.201083,30.5880217 C10.9603505,30.7088215 10.7193289,30.8296213 10.4783074,30.950421 C9.47202795,31.4552947 8.46517054,31.9595904 7.45889111,32.4644641 C7.11585444,32.6364159 6.77281777,32.8083677 6.4297811,32.9803196 C6.81385501,31.8254969 7.19821792,30.6709632 7.58171384,29.5158515 C7.68026102,29.218765 7.7790972,28.9216785 7.87793337,28.624592 C7.92359453,28.4881865 7.80770767,28.4665119 7.6976007,28.3873273 C7.55368136,28.2841562 7.41149598,28.1789622 7.27046659,28.0720342 C6.98147192,27.8526872 6.69854614,27.6255374 6.42342322,27.3891398 C5.51626896,26.6102991 4.69205618,25.7378242 3.99904697,24.7621782 C2.26305601,22.3172834 1.60848309,19.2438251 2.22982162,16.3035934 C2.7401862,13.8641894 4.10164007,11.6695639 5.93328827,9.99917473 C8.35448558,7.78403062 11.5247571,6.48268764 14.7675662,6.11132949" id="Fill-1" fill="#44B035"></path>
            </g>
        </g>
    </g>
</svg>