<svg xmlns="http://www.w3.org/2000/svg" xmlns:xlink="http://www.w3.org/1999/xlink" version="1.0" x="0px" y="0px" width="100px" height="100px" viewBox="0 0 100 100" enable-background="new 0 0 100 100" xml:space="preserve">
<g id="Captions">
</g>
<g id="Your_Icon">
	<path style="fill:#BBB;" d="M74.977,19.731H57.126c0.016-0.155,0.023-0.313,0.023-0.472c0-2.602-2.109-4.712-4.713-4.712h-4.872   c-2.602,0-4.712,2.11-4.712,4.712c0,0.159,0.008,0.317,0.023,0.472H25.023c-2.603,0-4.712,2.11-4.712,4.712   s2.109,4.711,4.712,4.711h0.591v52.013c0,2.405,1.802,4.384,4.127,4.673C30.124,85.94,30.522,86,30.937,86h38.127   c0.413,0,0.811-0.06,1.191-0.158c2.328-0.287,4.133-2.268,4.133-4.674V29.155h0.589c2.602,0,4.712-2.109,4.712-4.711   S77.578,19.731,74.977,19.731z M53.636,76.575h-7.54v-47.42h7.54V76.575z M41.384,29.155v47.42h-6.345v-47.42H41.384z    M64.963,76.575h-6.615v-47.42h6.615V76.575z"/>
</g>
</svg>
